G75*
%MOIN*%
%OFA0B0*%
%FSLAX25Y25*%
%IPPOS*%
%LPD*%
%AMOC8*
5,1,8,0,0,1.08239X$1,22.5*
%
%ADD10C,0.00800*%
%ADD11C,0.00500*%
%ADD12C,0.02362*%
%ADD13C,0.00600*%
%ADD14C,0.02200*%
D10*
X0030249Y0012026D02*
X0030249Y0031474D01*
X0044816Y0031474D01*
X0044816Y0012026D01*
X0030249Y0012026D01*
X0046764Y0035633D02*
X0051882Y0035633D01*
X0059984Y0041701D02*
X0059984Y0067902D01*
X0061381Y0069299D01*
X0087582Y0069299D01*
X0087582Y0041701D01*
X0059984Y0041701D01*
X0051882Y0050397D02*
X0046764Y0050397D01*
X0027176Y0050512D02*
X0024027Y0050512D01*
X0024027Y0048150D01*
X0024027Y0041850D02*
X0024027Y0039488D01*
X0027176Y0039488D01*
X0058783Y0070000D02*
X0058785Y0070049D01*
X0058791Y0070097D01*
X0058801Y0070145D01*
X0058815Y0070192D01*
X0058832Y0070238D01*
X0058853Y0070282D01*
X0058878Y0070324D01*
X0058906Y0070364D01*
X0058938Y0070402D01*
X0058972Y0070437D01*
X0059009Y0070469D01*
X0059048Y0070498D01*
X0059090Y0070524D01*
X0059134Y0070546D01*
X0059179Y0070564D01*
X0059226Y0070579D01*
X0059273Y0070590D01*
X0059322Y0070597D01*
X0059371Y0070600D01*
X0059420Y0070599D01*
X0059468Y0070594D01*
X0059517Y0070585D01*
X0059564Y0070572D01*
X0059610Y0070555D01*
X0059654Y0070535D01*
X0059697Y0070511D01*
X0059738Y0070484D01*
X0059776Y0070453D01*
X0059812Y0070420D01*
X0059844Y0070384D01*
X0059874Y0070345D01*
X0059901Y0070304D01*
X0059924Y0070260D01*
X0059943Y0070215D01*
X0059959Y0070169D01*
X0059971Y0070122D01*
X0059979Y0070073D01*
X0059983Y0070024D01*
X0059983Y0069976D01*
X0059979Y0069927D01*
X0059971Y0069878D01*
X0059959Y0069831D01*
X0059943Y0069785D01*
X0059924Y0069740D01*
X0059901Y0069696D01*
X0059874Y0069655D01*
X0059844Y0069616D01*
X0059812Y0069580D01*
X0059776Y0069547D01*
X0059738Y0069516D01*
X0059697Y0069489D01*
X0059654Y0069465D01*
X0059610Y0069445D01*
X0059564Y0069428D01*
X0059517Y0069415D01*
X0059468Y0069406D01*
X0059420Y0069401D01*
X0059371Y0069400D01*
X0059322Y0069403D01*
X0059273Y0069410D01*
X0059226Y0069421D01*
X0059179Y0069436D01*
X0059134Y0069454D01*
X0059090Y0069476D01*
X0059048Y0069502D01*
X0059009Y0069531D01*
X0058972Y0069563D01*
X0058938Y0069598D01*
X0058906Y0069636D01*
X0058878Y0069676D01*
X0058853Y0069718D01*
X0058832Y0069762D01*
X0058815Y0069808D01*
X0058801Y0069855D01*
X0058791Y0069903D01*
X0058785Y0069951D01*
X0058783Y0070000D01*
X0046507Y0079482D02*
X0046507Y0083813D01*
X0046507Y0079482D02*
X0044932Y0077907D01*
X0038633Y0077907D01*
X0037058Y0079482D01*
X0037058Y0083813D01*
X0036507Y0083813D02*
X0036507Y0079482D01*
X0034932Y0077907D01*
X0028633Y0077907D01*
X0027058Y0079482D01*
X0027058Y0083813D01*
X0027058Y0091687D02*
X0027058Y0097593D01*
X0036507Y0097593D01*
X0036507Y0091687D01*
X0037058Y0091687D02*
X0037058Y0097593D01*
X0046507Y0097593D01*
X0046507Y0091687D01*
X0110411Y0094872D02*
X0110411Y0047628D01*
X0126159Y0047628D01*
X0141907Y0047628D02*
X0157655Y0047628D01*
X0157655Y0094872D01*
X0141907Y0094872D01*
X0126159Y0094872D02*
X0110411Y0094872D01*
X0147239Y0044559D02*
X0148814Y0044559D01*
X0148814Y0039441D01*
X0154326Y0039441D01*
X0154326Y0044559D02*
X0148814Y0044559D01*
X0148814Y0039441D02*
X0147239Y0039441D01*
X0144133Y0033506D02*
X0141771Y0033506D01*
X0141771Y0030356D01*
X0150432Y0033506D02*
X0152795Y0033506D01*
X0152795Y0030356D01*
X0033613Y0174689D02*
X0033613Y0176500D01*
X0034834Y0177420D01*
X0033613Y0178311D02*
X0033613Y0176500D01*
X0033674Y0176400D02*
X0034834Y0175640D01*
D11*
X0035783Y0086250D02*
X0027783Y0086250D01*
X0037783Y0086250D02*
X0045783Y0086250D01*
D12*
X0041667Y0015254D03*
D13*
X0087480Y0021079D02*
X0093090Y0021079D01*
X0093090Y0008921D02*
X0087480Y0008921D01*
X0114480Y0011921D02*
X0120090Y0011921D01*
X0120090Y0024079D02*
X0114480Y0024079D01*
D14*
X0066153Y0089500D02*
X0065913Y0089500D01*
X0099783Y0106630D02*
X0099783Y0106870D01*
X0115783Y0105370D02*
X0115783Y0105130D01*
M02*
