G75*
%MOIN*%
%OFA0B0*%
%FSLAX25Y25*%
%IPPOS*%
%LPD*%
%AMOC8*
5,1,8,0,0,1.08239X$1,22.5*
%
%ADD10R,0.04737X0.05131*%
%ADD11R,0.15800X0.08400*%
%ADD12R,0.16548X0.07493*%
%ADD13C,0.04800*%
%ADD14OC8,0.05131*%
%ADD15OC8,0.04762*%
D10*
X0024283Y0062548D03*
X0024283Y0069241D03*
D11*
X0036783Y0023394D03*
X0036783Y0033394D03*
X0036783Y0043394D03*
X0036783Y0053394D03*
X0036783Y0063394D03*
X0036783Y0073394D03*
X0036783Y0083394D03*
X0036783Y0093394D03*
X0036783Y0103394D03*
X0147019Y0043394D03*
X0147019Y0033394D03*
X0147019Y0023394D03*
D12*
X0163909Y0024644D03*
X0163909Y0033394D03*
X0163909Y0042144D03*
D13*
X0165783Y0065894D02*
X0161783Y0065894D01*
X0161783Y0070894D02*
X0165783Y0070894D01*
X0165783Y0083394D02*
X0161783Y0083394D01*
X0161783Y0088394D02*
X0165783Y0088394D01*
X0165783Y0093394D02*
X0161783Y0093394D01*
X0161783Y0098394D02*
X0165783Y0098394D01*
X0165783Y0103394D02*
X0161783Y0103394D01*
X0016783Y0100894D02*
X0012783Y0100894D01*
X0012783Y0095894D02*
X0016783Y0095894D01*
X0016783Y0090894D02*
X0012783Y0090894D01*
X0012783Y0077394D02*
X0016783Y0077394D01*
X0016783Y0072394D02*
X0012783Y0072394D01*
X0012783Y0067394D02*
X0016783Y0067394D01*
X0016783Y0062394D02*
X0012783Y0062394D01*
X0012783Y0049894D02*
X0016783Y0049894D01*
X0016783Y0044894D02*
X0012783Y0044894D01*
X0012783Y0039894D02*
X0016783Y0039894D01*
X0016783Y0034894D02*
X0012783Y0034894D01*
X0012783Y0029894D02*
X0016783Y0029894D01*
X0016783Y0024894D02*
X0012783Y0024894D01*
D14*
X0054283Y0039894D03*
X0021283Y0050394D03*
X0018283Y0056894D03*
X0022283Y0080894D03*
X0025283Y0091394D03*
X0054283Y0092894D03*
X0060283Y0093394D03*
X0058283Y0087894D03*
X0078283Y0090394D03*
X0090783Y0098894D03*
X0106283Y0094894D03*
X0106783Y0088894D03*
X0136783Y0093394D03*
X0144783Y0103394D03*
X0161783Y0075894D03*
D15*
X0126783Y0050394D03*
X0112783Y0045394D03*
X0099283Y0053394D03*
X0108783Y0055894D03*
X0107783Y0067894D03*
X0095783Y0075394D03*
X0092283Y0082894D03*
X0106783Y0082894D03*
X0050283Y0071394D03*
X0050283Y0062894D03*
X0058783Y0049894D03*
X0073783Y0034394D03*
X0067783Y0031144D03*
X0062783Y0031144D03*
X0054033Y0024894D03*
X0059033Y0023394D03*
X0064033Y0023644D03*
X0083283Y0034394D03*
X0088533Y0040394D03*
X0096783Y0029144D03*
X0089033Y0027644D03*
X0112283Y0026894D03*
X0128533Y0021394D03*
X0157783Y0018394D03*
X0131283Y0042394D03*
M02*
