%
M48
M71
T01C0.508
T02C0.600
%
T01
X2540Y19050
X2540Y20320
X2540Y21590
X39370Y13970
X39370Y12700
X2540Y11811
X2540Y13081
X2540Y14351
X2540Y15621
X2540Y3556
X2540Y2286
X2540Y4826
X2540Y6096
X2540Y7366
X2540Y8636
X39370Y22225
X39370Y20955
X39370Y19685
X39370Y18415
X39370Y17145
T02
X3683Y8763
X12065Y6096
X22733Y15113
X12192Y3937
X12573Y2286
X22225Y17018
M30
