G75*
%MOIN*%
%OFA0B0*%
%FSLAX25Y25*%
%IPPOS*%
%LPD*%
%AMOC8*
5,1,8,0,0,1.08239X$1,22.5*
%
%ADD10C,0.00500*%
D10*
X0006783Y0008000D02*
X0006783Y0035500D01*
X0009283Y0038000D01*
X0006783Y0040500D01*
X0006783Y0043000D01*
X0019283Y0043000D01*
X0019283Y0008000D01*
X0006783Y0008000D01*
X0006783Y0035500D02*
X0006783Y0040500D01*
X0006783Y0045500D02*
X0006783Y0063000D01*
X0009283Y0065500D01*
X0006783Y0068000D01*
X0006783Y0070500D01*
X0019283Y0070500D01*
X0019283Y0045500D01*
X0006783Y0045500D01*
X0006783Y0063000D02*
X0006783Y0068000D01*
X0006783Y0074000D02*
X0006783Y0086500D01*
X0009283Y0089000D01*
X0006783Y0091500D01*
X0006783Y0094000D01*
X0019283Y0094000D01*
X0019283Y0074000D01*
X0006783Y0074000D01*
X0006783Y0086500D02*
X0006783Y0091500D01*
X0036783Y0096500D02*
X0146783Y0096500D01*
X0146783Y0036500D01*
X0159283Y0049000D02*
X0171783Y0049000D01*
X0171783Y0051500D01*
X0169283Y0054000D01*
X0171783Y0056500D01*
X0171783Y0051500D01*
X0171783Y0056500D02*
X0171783Y0064000D01*
X0159283Y0064000D01*
X0159283Y0049000D01*
X0159283Y0066500D02*
X0171783Y0066500D01*
X0171783Y0069000D01*
X0169283Y0071500D01*
X0171783Y0074000D01*
X0171783Y0069000D01*
X0171783Y0074000D02*
X0171783Y0096500D01*
X0159283Y0096500D01*
X0159283Y0066500D01*
X0172334Y0031500D02*
X0173653Y0031500D01*
X0173653Y0029000D01*
X0187531Y0029000D01*
X0187531Y0029925D01*
X0206783Y0029925D01*
X0206783Y0013075D01*
X0187531Y0013075D01*
X0187531Y0014000D01*
X0173653Y0014000D01*
X0173653Y0011500D01*
X0172728Y0011500D01*
X0173653Y0014000D02*
X0173653Y0029000D01*
X0146783Y0006500D02*
X0036783Y0006500D01*
M02*
