G75*
%MOIN*%
%OFA0B0*%
%FSLAX25Y25*%
%IPPOS*%
%LPD*%
%AMOC8*
5,1,8,0,0,1.08239X$1,22.5*
%
%ADD10R,0.04737X0.05131*%
%ADD11R,0.16548X0.07493*%
%ADD12C,0.04800*%
%ADD13R,0.15800X0.08400*%
%ADD14OC8,0.04762*%
%ADD15R,0.05131X0.05131*%
%ADD16OC8,0.05131*%
D10*
X0024283Y0061798D03*
X0024283Y0068491D03*
D11*
X0163909Y0041394D03*
X0163909Y0032644D03*
X0163909Y0023894D03*
D12*
X0165783Y0065144D02*
X0161783Y0065144D01*
X0161783Y0070144D02*
X0165783Y0070144D01*
X0165783Y0082644D02*
X0161783Y0082644D01*
X0161783Y0087644D02*
X0165783Y0087644D01*
X0165783Y0092644D02*
X0161783Y0092644D01*
X0161783Y0097644D02*
X0165783Y0097644D01*
X0165783Y0102644D02*
X0161783Y0102644D01*
X0016783Y0100144D02*
X0012783Y0100144D01*
X0012783Y0095144D02*
X0016783Y0095144D01*
X0016783Y0090144D02*
X0012783Y0090144D01*
X0012783Y0076644D02*
X0016783Y0076644D01*
X0016783Y0071644D02*
X0012783Y0071644D01*
X0012783Y0066644D02*
X0016783Y0066644D01*
X0016783Y0061644D02*
X0012783Y0061644D01*
X0012783Y0049144D02*
X0016783Y0049144D01*
X0016783Y0044144D02*
X0012783Y0044144D01*
X0012783Y0039144D02*
X0016783Y0039144D01*
X0016783Y0034144D02*
X0012783Y0034144D01*
X0012783Y0029144D02*
X0016783Y0029144D01*
X0016783Y0024144D02*
X0012783Y0024144D01*
D13*
X0038033Y0022644D03*
X0038033Y0032644D03*
X0038033Y0042644D03*
X0038033Y0052644D03*
X0038033Y0062644D03*
X0038033Y0072644D03*
X0038033Y0082644D03*
X0038033Y0092644D03*
X0038033Y0102644D03*
X0148269Y0042644D03*
X0148269Y0032644D03*
X0148269Y0022644D03*
D14*
X0128533Y0020644D03*
X0112283Y0026144D03*
X0131283Y0041644D03*
X0108783Y0055144D03*
X0099283Y0052644D03*
X0107783Y0067144D03*
X0095783Y0074644D03*
X0092283Y0082144D03*
X0106783Y0082144D03*
X0050283Y0070644D03*
X0050283Y0062144D03*
X0055283Y0024144D03*
X0061283Y0022894D03*
X0067783Y0022894D03*
D15*
X0167533Y0047894D03*
D16*
X0161783Y0075144D03*
X0136783Y0092644D03*
X0144783Y0102644D03*
X0106283Y0094144D03*
X0106783Y0088144D03*
X0090783Y0098144D03*
X0078283Y0089644D03*
X0060283Y0092644D03*
X0054283Y0092144D03*
X0058283Y0087144D03*
X0025283Y0090644D03*
X0022283Y0080144D03*
X0026283Y0075894D03*
X0016783Y0055394D03*
X0054783Y0042144D03*
X0059033Y0048894D03*
X0083533Y0033144D03*
X0076783Y0029644D03*
X0088783Y0038894D03*
X0092783Y0028644D03*
X0101033Y0074894D03*
M02*
