G75*
%MOIN*%
%OFA0B0*%
%FSLAX25Y25*%
%IPPOS*%
%LPD*%
%AMOC8*
5,1,8,0,0,1.08239X$1,22.5*
%
%ADD10R,0.04331X0.03937*%
%ADD11R,0.03937X0.04331*%
%ADD12R,0.06299X0.05512*%
%ADD13C,0.01181*%
%ADD14R,0.05000X0.02200*%
%ADD15R,0.02200X0.05000*%
%ADD16R,0.05906X0.01772*%
%ADD17R,0.11811X0.11811*%
%ADD18R,0.02480X0.03268*%
%ADD19R,0.03543X0.03150*%
%ADD20R,0.02362X0.04724*%
%ADD21R,0.04724X0.02362*%
%ADD22R,0.08268X0.01772*%
D10*
X0078283Y0036048D03*
X0083533Y0038048D03*
X0078283Y0042741D03*
X0083533Y0044741D03*
X0088783Y0044048D03*
X0088783Y0050741D03*
X0097936Y0057394D03*
X0104629Y0057394D03*
X0104629Y0065394D03*
X0097936Y0065394D03*
X0100783Y0081048D03*
X0100783Y0087741D03*
X0084629Y0095394D03*
X0077936Y0095394D03*
X0035283Y0060241D03*
X0035283Y0053548D03*
X0032436Y0046394D03*
X0039129Y0046394D03*
X0111783Y0039241D03*
X0111783Y0032548D03*
X0125283Y0038048D03*
X0125283Y0044741D03*
X0137436Y0042394D03*
X0144129Y0042394D03*
X0147783Y0036241D03*
X0147783Y0029548D03*
X0119129Y0022394D03*
X0112436Y0022394D03*
D11*
X0125033Y0026048D03*
X0133436Y0024394D03*
X0140129Y0024394D03*
X0125033Y0032741D03*
X0117033Y0031048D03*
X0117033Y0037741D03*
X0106629Y0038894D03*
X0099936Y0038894D03*
X0100629Y0047394D03*
X0093936Y0047394D03*
X0067129Y0041644D03*
X0060436Y0041644D03*
X0060436Y0036144D03*
X0067129Y0036144D03*
X0087436Y0022394D03*
X0094129Y0022394D03*
X0132436Y0049894D03*
X0139129Y0049894D03*
X0066033Y0098048D03*
X0060879Y0098644D03*
X0054186Y0098644D03*
X0049283Y0098798D03*
X0054186Y0103894D03*
X0049283Y0105491D03*
X0060879Y0103894D03*
X0066033Y0104741D03*
X0077936Y0100394D03*
X0084629Y0100394D03*
X0098936Y0100894D03*
X0105629Y0100894D03*
X0105629Y0106394D03*
X0098936Y0106394D03*
X0024283Y0102991D03*
X0024283Y0096298D03*
D12*
X0031783Y0094132D03*
X0041783Y0094132D03*
X0041783Y0105156D03*
X0031783Y0105156D03*
D13*
X0104452Y0051772D02*
X0104452Y0049016D01*
X0104452Y0051772D02*
X0107208Y0051772D01*
X0107208Y0049016D01*
X0104452Y0049016D01*
X0104452Y0050196D02*
X0107208Y0050196D01*
X0107208Y0051376D02*
X0104452Y0051376D01*
X0111358Y0051772D02*
X0111358Y0049016D01*
X0111358Y0051772D02*
X0114114Y0051772D01*
X0114114Y0049016D01*
X0111358Y0049016D01*
X0111358Y0050196D02*
X0114114Y0050196D01*
X0114114Y0051376D02*
X0111358Y0051376D01*
D14*
X0090683Y0056371D03*
X0090683Y0059520D03*
X0090683Y0062670D03*
X0090683Y0065819D03*
X0090683Y0068969D03*
X0090683Y0072119D03*
X0090683Y0075268D03*
X0090683Y0078418D03*
X0056883Y0078418D03*
X0056883Y0075268D03*
X0056883Y0072119D03*
X0056883Y0068969D03*
X0056883Y0065819D03*
X0056883Y0062670D03*
X0056883Y0059520D03*
X0056883Y0056371D03*
D15*
X0062759Y0050494D03*
X0065909Y0050494D03*
X0069058Y0050494D03*
X0072208Y0050494D03*
X0075358Y0050494D03*
X0078507Y0050494D03*
X0081657Y0050494D03*
X0084806Y0050494D03*
X0084806Y0084294D03*
X0081657Y0084294D03*
X0078507Y0084294D03*
X0075358Y0084294D03*
X0072208Y0084294D03*
X0069058Y0084294D03*
X0065909Y0084294D03*
X0062759Y0084294D03*
D16*
X0026942Y0024894D03*
X0026942Y0027394D03*
X0026942Y0029894D03*
X0026942Y0032394D03*
X0026942Y0034894D03*
X0026942Y0037394D03*
X0026942Y0039894D03*
X0026942Y0042394D03*
X0048123Y0042394D03*
X0048123Y0039894D03*
X0048123Y0037394D03*
X0048123Y0034894D03*
X0048123Y0032394D03*
X0048123Y0029894D03*
X0048123Y0027394D03*
X0048123Y0024894D03*
D17*
X0134033Y0061491D03*
X0134033Y0104798D03*
D18*
X0157255Y0054394D03*
X0166310Y0054394D03*
D19*
X0152363Y0051394D03*
X0144096Y0047654D03*
X0144096Y0055134D03*
X0030720Y0053154D03*
X0022452Y0056894D03*
X0030720Y0060634D03*
D20*
X0099543Y0033036D03*
X0103283Y0033036D03*
X0107023Y0033036D03*
X0107023Y0022752D03*
X0099543Y0022752D03*
D21*
X0131141Y0029654D03*
X0131141Y0033394D03*
X0131141Y0037134D03*
X0141425Y0037134D03*
X0141425Y0029654D03*
D22*
X0049283Y0049670D03*
X0049283Y0054394D03*
X0049283Y0059119D03*
M02*
