G75*
%MOIN*%
%OFA0B0*%
%FSLAX25Y25*%
%IPPOS*%
%LPD*%
%AMOC8*
5,1,8,0,0,1.08239X$1,22.5*
%
%ADD10R,0.03937X0.04331*%
%ADD11R,0.15748X0.06693*%
%ADD12C,0.04000*%
%ADD13R,0.15000X0.07600*%
%ADD14C,0.07000*%
%ADD15C,0.01600*%
%ADD16OC8,0.03962*%
%ADD17R,0.04331X0.04331*%
%ADD18OC8,0.04331*%
%ADD19C,0.01575*%
%ADD20C,0.05512*%
%ADD21C,0.01181*%
%ADD22C,0.07087*%
%ADD23C,0.05906*%
D10*
X0024283Y0061798D03*
X0024283Y0068491D03*
D11*
X0163909Y0041394D03*
X0163909Y0032644D03*
X0163909Y0023894D03*
D12*
X0165783Y0065144D02*
X0161783Y0065144D01*
X0161783Y0070144D02*
X0165783Y0070144D01*
X0165783Y0082644D02*
X0161783Y0082644D01*
X0161783Y0087644D02*
X0165783Y0087644D01*
X0165783Y0092644D02*
X0161783Y0092644D01*
X0161783Y0097644D02*
X0165783Y0097644D01*
X0165783Y0102644D02*
X0161783Y0102644D01*
X0016783Y0100144D02*
X0012783Y0100144D01*
X0012783Y0095144D02*
X0016783Y0095144D01*
X0016783Y0090144D02*
X0012783Y0090144D01*
X0012783Y0076644D02*
X0016783Y0076644D01*
X0016783Y0071644D02*
X0012783Y0071644D01*
X0012783Y0066644D02*
X0016783Y0066644D01*
X0016783Y0061644D02*
X0012783Y0061644D01*
X0012783Y0049144D02*
X0016783Y0049144D01*
X0016783Y0044144D02*
X0012783Y0044144D01*
X0012783Y0039144D02*
X0016783Y0039144D01*
X0016783Y0034144D02*
X0012783Y0034144D01*
X0012783Y0029144D02*
X0016783Y0029144D01*
X0016783Y0024144D02*
X0012783Y0024144D01*
D13*
X0038033Y0022644D03*
X0038033Y0032644D03*
X0038033Y0042644D03*
X0038033Y0052644D03*
X0038033Y0062644D03*
X0038033Y0072644D03*
X0038033Y0082644D03*
X0038033Y0092644D03*
X0038033Y0102644D03*
X0148269Y0042644D03*
X0148269Y0032644D03*
X0148269Y0022644D03*
D14*
X0159283Y0022644D02*
X0162283Y0022644D01*
X0162659Y0022644D01*
D15*
X0159283Y0022644D02*
X0158408Y0021769D01*
X0157783Y0021144D01*
X0138533Y0021144D01*
X0135533Y0024144D01*
X0135533Y0038894D01*
X0138283Y0041644D01*
X0161283Y0041644D01*
X0160283Y0042644D01*
X0160283Y0048144D01*
X0141283Y0067144D01*
X0107783Y0067144D01*
X0108783Y0066144D01*
X0108783Y0055144D01*
X0099283Y0052644D02*
X0099283Y0051144D01*
X0112283Y0038144D01*
X0112283Y0026144D01*
X0115783Y0026144D01*
X0131283Y0041644D01*
X0160283Y0048144D02*
X0169783Y0057644D01*
X0169783Y0074644D01*
X0161783Y0082644D01*
X0154783Y0082144D02*
X0161783Y0075144D01*
X0154783Y0082144D02*
X0154783Y0100144D01*
X0147783Y0107144D01*
X0063783Y0107144D01*
X0054283Y0097644D01*
X0054283Y0092144D01*
X0060283Y0092644D02*
X0063283Y0089644D01*
X0078283Y0089644D01*
X0082783Y0085144D02*
X0060283Y0085144D01*
X0058283Y0087144D01*
X0082783Y0085144D02*
X0090783Y0093144D01*
X0101783Y0082144D01*
X0106783Y0082144D01*
X0106783Y0073144D01*
X0099283Y0065644D01*
X0099283Y0052644D01*
X0095783Y0047644D02*
X0093033Y0050394D01*
X0093033Y0071894D01*
X0095783Y0074644D01*
X0100033Y0075894D02*
X0101033Y0074894D01*
X0100033Y0075894D02*
X0100033Y0079894D01*
X0093783Y0086144D01*
X0089783Y0086144D01*
X0059033Y0055394D01*
X0059033Y0048894D01*
X0050283Y0062144D02*
X0050283Y0070644D01*
X0038033Y0062644D02*
X0037186Y0061798D01*
X0024283Y0061798D01*
X0024283Y0057975D01*
X0022452Y0056144D01*
X0017533Y0056144D01*
X0016783Y0055394D01*
X0024283Y0068491D02*
X0026033Y0070241D01*
X0026033Y0075644D01*
X0018283Y0075644D01*
X0017283Y0076644D01*
X0016783Y0076644D01*
X0016783Y0082144D01*
X0021283Y0086644D01*
X0021283Y0098644D01*
X0019783Y0100144D01*
X0019283Y0100144D01*
X0021783Y0102644D01*
X0038033Y0102644D01*
X0019283Y0100144D02*
X0016783Y0100144D01*
X0025283Y0090644D02*
X0025283Y0083644D01*
X0022283Y0080144D01*
X0088783Y0078644D02*
X0088783Y0048394D01*
X0070033Y0026644D02*
X0059033Y0026644D01*
X0066533Y0019144D02*
X0127033Y0019144D01*
X0128533Y0020644D01*
X0161283Y0041644D02*
X0163659Y0041644D01*
X0163909Y0041394D01*
X0167783Y0041894D02*
X0169783Y0043894D01*
X0169783Y0045644D01*
X0167533Y0047894D01*
X0142283Y0088144D02*
X0106783Y0088144D01*
X0107783Y0092644D02*
X0106283Y0094144D01*
X0107783Y0092644D02*
X0136783Y0092644D01*
X0142283Y0088144D02*
X0144783Y0090644D01*
X0144783Y0102644D01*
X0092283Y0082144D02*
X0088783Y0078644D01*
X0090783Y0093144D02*
X0090783Y0098144D01*
D16*
X0092283Y0082144D03*
X0095783Y0074644D03*
X0106783Y0082144D03*
X0107783Y0067144D03*
X0108783Y0055144D03*
X0099283Y0052644D03*
X0131283Y0041644D03*
X0112283Y0026144D03*
X0128533Y0020644D03*
X0067783Y0022894D03*
X0061283Y0022894D03*
X0055283Y0024144D03*
X0050283Y0062144D03*
X0050283Y0070644D03*
D17*
X0167533Y0047894D03*
D18*
X0161783Y0075144D03*
X0136783Y0092644D03*
X0144783Y0102644D03*
X0106283Y0094144D03*
X0106783Y0088144D03*
X0090783Y0098144D03*
X0078283Y0089644D03*
X0060283Y0092644D03*
X0054283Y0092144D03*
X0058283Y0087144D03*
X0025283Y0090644D03*
X0022283Y0080144D03*
X0026283Y0075894D03*
X0016783Y0055394D03*
X0054783Y0042144D03*
X0059033Y0048894D03*
X0083533Y0033144D03*
X0076783Y0029644D03*
X0088783Y0038894D03*
X0092783Y0028644D03*
X0101033Y0074894D03*
D19*
X0058283Y0080394D02*
X0058283Y0059394D01*
X0054783Y0055894D01*
X0054783Y0042144D01*
X0052783Y0038144D02*
X0050783Y0040144D01*
X0050783Y0056894D01*
X0054283Y0060394D01*
X0054283Y0072894D01*
X0052783Y0074394D01*
X0039783Y0074394D01*
X0038033Y0072644D01*
X0046533Y0092144D02*
X0058283Y0080394D01*
X0046533Y0092144D02*
X0038533Y0092144D01*
X0038033Y0092644D01*
X0038033Y0052644D02*
X0020283Y0052644D01*
X0016783Y0049144D01*
X0038033Y0042644D02*
X0043033Y0042644D01*
X0050283Y0035394D01*
X0067033Y0035394D01*
X0070533Y0038894D01*
X0088783Y0038894D01*
X0092783Y0040394D02*
X0089283Y0043894D01*
X0063033Y0043894D01*
X0057283Y0038144D01*
X0052783Y0038144D01*
X0055533Y0029644D02*
X0047783Y0022644D01*
X0038033Y0022644D01*
X0038283Y0022394D01*
X0055283Y0024144D02*
X0057783Y0026644D01*
X0059033Y0026644D01*
X0055533Y0029644D02*
X0076783Y0029644D01*
X0080533Y0033144D02*
X0079283Y0034394D01*
X0071533Y0034394D01*
X0069783Y0032644D01*
X0038033Y0032644D01*
X0061283Y0022894D02*
X0065033Y0019144D01*
X0066533Y0019144D01*
X0069783Y0021644D02*
X0101033Y0021644D01*
X0106283Y0026894D01*
X0106283Y0037144D01*
X0095783Y0047644D01*
X0088783Y0048394D02*
X0100283Y0036894D01*
X0100283Y0027644D01*
X0097033Y0024394D01*
X0072533Y0024394D01*
X0070283Y0026644D01*
X0070033Y0026644D01*
X0068533Y0022894D02*
X0069783Y0021644D01*
X0068533Y0022894D02*
X0067783Y0022894D01*
X0080533Y0033144D02*
X0083533Y0033144D01*
X0092783Y0028644D02*
X0092783Y0040394D01*
D20*
X0148269Y0042644D02*
X0162283Y0042644D01*
D21*
X0167533Y0047894D01*
X0164533Y0024144D02*
X0160783Y0024144D01*
X0158408Y0021769D01*
X0163909Y0023894D02*
X0164283Y0023894D01*
X0164533Y0024144D01*
D22*
X0162283Y0022644D02*
X0148269Y0022644D01*
D23*
X0148269Y0032644D02*
X0163909Y0032644D01*
M02*
