G75*
%MOIN*%
%OFA0B0*%
%FSLAX25Y25*%
%IPPOS*%
%LPD*%
%AMOC8*
5,1,8,0,0,1.08239X$1,22.5*
%
%ADD10C,0.01600*%
%ADD11R,0.04331X0.03937*%
%ADD12R,0.03937X0.04331*%
%ADD13R,0.05512X0.06299*%
%ADD14C,0.01181*%
%ADD15C,0.01772*%
%ADD16C,0.01000*%
%ADD17R,0.02200X0.05000*%
%ADD18R,0.05000X0.02200*%
%ADD19R,0.05906X0.01772*%
%ADD20R,0.11811X0.11811*%
%ADD21R,0.03268X0.02480*%
%ADD22R,0.03150X0.03543*%
%ADD23R,0.03543X0.03150*%
%ADD24R,0.02362X0.04724*%
%ADD25C,0.04000*%
D10*
X0005633Y0003772D02*
X0005633Y0098772D01*
X0170633Y0098772D01*
X0170633Y0003772D01*
X0005633Y0003772D01*
D11*
X0129787Y0116272D03*
X0136480Y0116272D03*
X0136480Y0136272D03*
X0129787Y0136272D03*
X0078980Y0123772D03*
X0072287Y0123772D03*
X0182287Y0106272D03*
X0188980Y0106272D03*
X0191480Y0096272D03*
X0184787Y0096272D03*
X0202287Y0073772D03*
X0208980Y0073772D03*
X0191480Y0146272D03*
X0184787Y0146272D03*
D12*
X0171480Y0136272D03*
X0164787Y0136272D03*
X0164787Y0156272D03*
X0171480Y0156272D03*
X0179787Y0166272D03*
X0186480Y0166272D03*
X0171480Y0176272D03*
X0164787Y0176272D03*
X0179787Y0186272D03*
X0186480Y0186272D03*
X0148980Y0191272D03*
X0142287Y0191272D03*
X0123980Y0171272D03*
X0117287Y0171272D03*
X0129787Y0156272D03*
X0136480Y0156272D03*
X0147287Y0156272D03*
X0153980Y0156272D03*
X0118980Y0146272D03*
X0112287Y0146272D03*
X0096480Y0151272D03*
X0089787Y0151272D03*
X0078980Y0153772D03*
X0072287Y0153772D03*
X0063980Y0173772D03*
X0057287Y0173772D03*
X0056480Y0181272D03*
X0049787Y0181272D03*
X0023133Y0212926D03*
X0023133Y0219619D03*
X0018980Y0136272D03*
X0012287Y0136272D03*
X0104787Y0128772D03*
X0111480Y0128772D03*
X0164787Y0116272D03*
X0171480Y0116272D03*
X0194787Y0121272D03*
X0201480Y0121272D03*
X0202287Y0128772D03*
X0208980Y0128772D03*
X0208980Y0108772D03*
X0202287Y0108772D03*
D13*
X0205122Y0088772D03*
X0216145Y0088772D03*
X0078645Y0188772D03*
X0067622Y0188772D03*
X0036145Y0198772D03*
X0025122Y0198772D03*
X0047622Y0146272D03*
X0058645Y0146272D03*
X0056145Y0128772D03*
X0045122Y0128772D03*
D14*
X0037964Y0174894D02*
X0037964Y0177650D01*
X0037964Y0174894D02*
X0035208Y0174894D01*
X0035208Y0177650D01*
X0037964Y0177650D01*
X0037964Y0176074D02*
X0035208Y0176074D01*
X0035208Y0177254D02*
X0037964Y0177254D01*
X0031059Y0177650D02*
X0031059Y0174894D01*
X0028303Y0174894D01*
X0028303Y0177650D01*
X0031059Y0177650D01*
X0031059Y0176074D02*
X0028303Y0176074D01*
X0028303Y0177254D02*
X0031059Y0177254D01*
D15*
X0077159Y0030386D02*
X0077159Y0024658D01*
X0081883Y0024658D02*
X0081883Y0030386D01*
X0086608Y0030386D02*
X0086608Y0024658D01*
D16*
X0086608Y0023522D02*
X0086608Y0027522D01*
X0086608Y0031522D01*
X0081883Y0031522D02*
X0081883Y0027522D01*
X0081883Y0023522D01*
X0077159Y0023522D02*
X0077159Y0027522D01*
X0077159Y0031522D01*
D17*
X0078507Y0038122D03*
X0075358Y0038122D03*
X0072208Y0038122D03*
X0069059Y0038122D03*
X0065909Y0038122D03*
X0062759Y0038122D03*
X0059610Y0038122D03*
X0081657Y0038122D03*
X0081657Y0071922D03*
X0078507Y0071922D03*
X0075358Y0071922D03*
X0072208Y0071922D03*
X0069059Y0071922D03*
X0065909Y0071922D03*
X0062759Y0071922D03*
X0059610Y0071922D03*
D18*
X0053733Y0066046D03*
X0053733Y0062896D03*
X0053733Y0059746D03*
X0053733Y0056597D03*
X0053733Y0053447D03*
X0053733Y0050298D03*
X0053733Y0047148D03*
X0053733Y0043998D03*
X0087533Y0043998D03*
X0087533Y0047148D03*
X0087533Y0050298D03*
X0087533Y0053447D03*
X0087533Y0056597D03*
X0087533Y0059746D03*
X0087533Y0062896D03*
X0087533Y0066046D03*
D19*
X0242543Y0052522D03*
X0242543Y0050022D03*
X0242543Y0047522D03*
X0242543Y0045022D03*
X0242543Y0042522D03*
X0242543Y0040022D03*
X0242543Y0037522D03*
X0242543Y0035022D03*
X0263724Y0035022D03*
X0263724Y0037522D03*
X0263724Y0040022D03*
X0263724Y0042522D03*
X0263724Y0045022D03*
X0263724Y0047522D03*
X0263724Y0050022D03*
X0263724Y0052522D03*
D20*
X0146037Y0025022D03*
X0102730Y0025022D03*
D21*
X0023133Y0061744D03*
X0023133Y0070800D03*
D22*
X0116893Y0184835D03*
X0124373Y0184835D03*
X0120633Y0193103D03*
D23*
X0034570Y0078762D03*
X0026303Y0075022D03*
X0034570Y0071282D03*
D24*
X0084393Y0166130D03*
X0088133Y0166130D03*
X0091873Y0166130D03*
X0091873Y0176414D03*
X0084393Y0176414D03*
X0136893Y0181414D03*
X0144373Y0181414D03*
X0144373Y0171130D03*
X0140633Y0171130D03*
X0136893Y0171130D03*
D25*
X0160633Y0091272D02*
X0164633Y0091272D01*
X0164633Y0086272D02*
X0160633Y0086272D01*
X0160633Y0081272D02*
X0164633Y0081272D01*
X0164633Y0076272D02*
X0160633Y0076272D01*
X0160633Y0071272D02*
X0164633Y0071272D01*
X0164633Y0066272D02*
X0160633Y0066272D01*
X0015633Y0066272D02*
X0011633Y0066272D01*
X0011633Y0071272D02*
X0015633Y0071272D01*
X0015633Y0082522D02*
X0011633Y0082522D01*
X0011633Y0087522D02*
X0015633Y0087522D01*
X0015633Y0092522D02*
X0011633Y0092522D01*
X0011633Y0055022D02*
X0015633Y0055022D01*
X0015633Y0050022D02*
X0011633Y0050022D01*
X0011633Y0045022D02*
X0015633Y0045022D01*
X0015633Y0040022D02*
X0011633Y0040022D01*
X0011633Y0035022D02*
X0015633Y0035022D01*
X0015633Y0023772D02*
X0011633Y0023772D01*
X0011633Y0018772D02*
X0015633Y0018772D01*
X0015633Y0013772D02*
X0011633Y0013772D01*
X0011633Y0008772D02*
X0015633Y0008772D01*
M02*
