%
M48
M72
T01C0.02000
T02C0.02362
%
T01
X16783Y24894
X16783Y29894
X16783Y34894
X16783Y39894
X16783Y44894
X16783Y49894
X16783Y62394
X16783Y67394
X16783Y72394
X16783Y77394
X16783Y90894
X16783Y95894
X16783Y100894
X161783Y98394
X161783Y93394
X161783Y88394
X161783Y83394
X161783Y70894
X161783Y65894
X161783Y103394
T02
X144783Y103394
X136783Y93394
X106783Y88894
X106783Y82894
X95783Y75394
X107783Y67894
X108783Y55894
X99283Y53394
X112783Y45394
X126783Y50394
X131283Y42394
X112283Y26894
X96783Y29144
X89033Y27644
X83283Y34394
X88533Y40394
X73783Y34394
X67783Y31144
X62783Y31144
X54033Y24894
X59033Y23394
X64033Y23644
X54283Y39894
X58783Y49894
X50283Y62894
X50283Y71394
X58283Y87894
X54283Y92894
X60283Y93394
X78283Y90394
X90783Y98894
X106283Y94894
X92283Y82894
X25283Y91394
X22283Y80894
X18283Y56894
X21283Y50394
X128533Y21394
X157783Y18394
X161783Y75894
M30
