G75*
%MOIN*%
%OFA0B0*%
%FSLAX25Y25*%
%IPPOS*%
%LPD*%
%AMOC8*
5,1,8,0,0,1.08239X$1,22.5*
%
%ADD10R,0.04331X0.03937*%
%ADD11R,0.03937X0.04331*%
%ADD12R,0.06299X0.05512*%
%ADD13C,0.01181*%
%ADD14R,0.05000X0.02200*%
%ADD15R,0.02200X0.05000*%
%ADD16R,0.05906X0.01772*%
%ADD17R,0.11811X0.11811*%
%ADD18R,0.02480X0.03268*%
%ADD19R,0.03543X0.03150*%
%ADD20R,0.03150X0.03543*%
%ADD21R,0.04724X0.02362*%
%ADD22R,0.08268X0.01772*%
D10*
X0034436Y0034500D03*
X0041129Y0034500D03*
X0035283Y0041654D03*
X0035283Y0048346D03*
X0078783Y0032846D03*
X0078783Y0026154D03*
X0096936Y0054000D03*
X0103629Y0054000D03*
X0100783Y0069154D03*
X0100783Y0075846D03*
X0084629Y0081000D03*
X0077936Y0081000D03*
X0096436Y0106750D03*
X0103129Y0106750D03*
X0112436Y0105250D03*
X0119129Y0105250D03*
X0130936Y0116500D03*
X0137629Y0116500D03*
X0137629Y0136500D03*
X0130936Y0136500D03*
X0185936Y0146500D03*
X0192629Y0146500D03*
D11*
X0187629Y0166500D03*
X0180936Y0166500D03*
X0172629Y0176500D03*
X0165936Y0176500D03*
X0180936Y0186500D03*
X0187629Y0186500D03*
X0155129Y0156500D03*
X0148436Y0156500D03*
X0137629Y0156500D03*
X0130936Y0156500D03*
X0097629Y0151500D03*
X0090936Y0151500D03*
X0080129Y0154000D03*
X0073436Y0154000D03*
X0065129Y0174000D03*
X0058436Y0174000D03*
X0057629Y0181500D03*
X0050936Y0181500D03*
X0064436Y0111500D03*
X0071129Y0111500D03*
X0072129Y0104500D03*
X0065436Y0104500D03*
X0066033Y0092846D03*
X0060879Y0092000D03*
X0060879Y0086750D03*
X0066033Y0086154D03*
X0054186Y0086750D03*
X0054186Y0092000D03*
X0049283Y0093596D03*
X0049283Y0086904D03*
X0024283Y0084404D03*
X0024283Y0091096D03*
X0077936Y0086000D03*
X0084629Y0086000D03*
X0165936Y0116500D03*
X0172629Y0116500D03*
X0172629Y0136500D03*
X0165936Y0136500D03*
X0150129Y0191500D03*
X0143436Y0191500D03*
D12*
X0041783Y0093262D03*
X0031783Y0093262D03*
X0031783Y0082238D03*
X0041783Y0082238D03*
D13*
X0039114Y0175122D02*
X0039114Y0177878D01*
X0039114Y0175122D02*
X0036358Y0175122D01*
X0036358Y0177878D01*
X0039114Y0177878D01*
X0039114Y0176302D02*
X0036358Y0176302D01*
X0036358Y0177482D02*
X0039114Y0177482D01*
X0032208Y0177878D02*
X0032208Y0175122D01*
X0029452Y0175122D01*
X0029452Y0177878D01*
X0032208Y0177878D01*
X0032208Y0176302D02*
X0029452Y0176302D01*
X0029452Y0177482D02*
X0032208Y0177482D01*
D14*
X0056883Y0066524D03*
X0056883Y0063374D03*
X0056883Y0060224D03*
X0056883Y0057075D03*
X0056883Y0053925D03*
X0056883Y0050776D03*
X0056883Y0047626D03*
X0056883Y0044476D03*
X0090683Y0044476D03*
X0090683Y0047626D03*
X0090683Y0050776D03*
X0090683Y0053925D03*
X0090683Y0057075D03*
X0090683Y0060224D03*
X0090683Y0063374D03*
X0090683Y0066524D03*
D15*
X0084806Y0072400D03*
X0081657Y0072400D03*
X0078507Y0072400D03*
X0075358Y0072400D03*
X0072208Y0072400D03*
X0069058Y0072400D03*
X0065909Y0072400D03*
X0062759Y0072400D03*
X0062759Y0038600D03*
X0065909Y0038600D03*
X0069058Y0038600D03*
X0072208Y0038600D03*
X0075358Y0038600D03*
X0078507Y0038600D03*
X0081657Y0038600D03*
X0084806Y0038600D03*
D16*
X0026942Y0013000D03*
X0026942Y0015500D03*
X0026942Y0018000D03*
X0026942Y0020500D03*
X0026942Y0023000D03*
X0026942Y0025500D03*
X0026942Y0028000D03*
X0026942Y0030500D03*
X0048123Y0030500D03*
X0048123Y0028000D03*
X0048123Y0025500D03*
X0048123Y0023000D03*
X0048123Y0020500D03*
X0048123Y0018000D03*
X0048123Y0015500D03*
X0048123Y0013000D03*
D17*
X0134033Y0049596D03*
X0134033Y0092904D03*
D18*
X0146255Y0042000D03*
X0155310Y0042000D03*
D19*
X0030720Y0041260D03*
X0030720Y0048740D03*
X0022452Y0045000D03*
D20*
X0143543Y0026813D03*
X0151023Y0026813D03*
X0147283Y0035081D03*
D21*
X0122425Y0021740D03*
X0122425Y0014260D03*
X0112141Y0014260D03*
X0112141Y0018000D03*
X0112141Y0021740D03*
X0095425Y0018740D03*
X0095425Y0011260D03*
X0085141Y0011260D03*
X0085141Y0015000D03*
X0085141Y0018740D03*
D22*
X0049283Y0038276D03*
X0049283Y0043000D03*
X0049283Y0047724D03*
M02*
