G75*
%MOIN*%
%OFA0B0*%
%FSLAX25Y25*%
%IPPOS*%
%LPD*%
%AMOC8*
5,1,8,0,0,1.08239X$1,22.5*
%
%ADD10C,0.00800*%
%ADD11C,0.00500*%
%ADD12C,0.02362*%
%ADD13C,0.00600*%
%ADD14C,0.02200*%
D10*
X0030249Y0023920D02*
X0030249Y0043369D01*
X0044816Y0043369D01*
X0044816Y0023920D01*
X0030249Y0023920D01*
X0046764Y0047028D02*
X0051882Y0047028D01*
X0059984Y0053595D02*
X0059984Y0079796D01*
X0061381Y0081193D01*
X0087582Y0081193D01*
X0087582Y0053595D01*
X0059984Y0053595D01*
X0051882Y0061791D02*
X0046764Y0061791D01*
X0027176Y0062406D02*
X0024027Y0062406D01*
X0024027Y0060044D01*
X0024027Y0053745D02*
X0024027Y0051382D01*
X0027176Y0051382D01*
X0058783Y0081894D02*
X0058785Y0081943D01*
X0058791Y0081991D01*
X0058801Y0082039D01*
X0058815Y0082086D01*
X0058832Y0082132D01*
X0058853Y0082176D01*
X0058878Y0082218D01*
X0058906Y0082258D01*
X0058938Y0082296D01*
X0058972Y0082331D01*
X0059009Y0082363D01*
X0059048Y0082392D01*
X0059090Y0082418D01*
X0059134Y0082440D01*
X0059179Y0082458D01*
X0059226Y0082473D01*
X0059273Y0082484D01*
X0059322Y0082491D01*
X0059371Y0082494D01*
X0059420Y0082493D01*
X0059468Y0082488D01*
X0059517Y0082479D01*
X0059564Y0082466D01*
X0059610Y0082449D01*
X0059654Y0082429D01*
X0059697Y0082405D01*
X0059738Y0082378D01*
X0059776Y0082347D01*
X0059812Y0082314D01*
X0059844Y0082278D01*
X0059874Y0082239D01*
X0059901Y0082198D01*
X0059924Y0082154D01*
X0059943Y0082109D01*
X0059959Y0082063D01*
X0059971Y0082016D01*
X0059979Y0081967D01*
X0059983Y0081918D01*
X0059983Y0081870D01*
X0059979Y0081821D01*
X0059971Y0081772D01*
X0059959Y0081725D01*
X0059943Y0081679D01*
X0059924Y0081634D01*
X0059901Y0081590D01*
X0059874Y0081549D01*
X0059844Y0081510D01*
X0059812Y0081474D01*
X0059776Y0081441D01*
X0059738Y0081410D01*
X0059697Y0081383D01*
X0059654Y0081359D01*
X0059610Y0081339D01*
X0059564Y0081322D01*
X0059517Y0081309D01*
X0059468Y0081300D01*
X0059420Y0081295D01*
X0059371Y0081294D01*
X0059322Y0081297D01*
X0059273Y0081304D01*
X0059226Y0081315D01*
X0059179Y0081330D01*
X0059134Y0081348D01*
X0059090Y0081370D01*
X0059048Y0081396D01*
X0059009Y0081425D01*
X0058972Y0081457D01*
X0058938Y0081492D01*
X0058906Y0081530D01*
X0058878Y0081570D01*
X0058853Y0081612D01*
X0058832Y0081656D01*
X0058815Y0081702D01*
X0058801Y0081749D01*
X0058791Y0081797D01*
X0058785Y0081845D01*
X0058783Y0081894D01*
X0046507Y0091376D02*
X0044932Y0089802D01*
X0038633Y0089802D01*
X0037058Y0091376D01*
X0037058Y0095707D01*
X0036507Y0095707D02*
X0036507Y0091376D01*
X0034932Y0089802D01*
X0028633Y0089802D01*
X0027058Y0091376D01*
X0027058Y0095707D01*
X0027058Y0103581D02*
X0027058Y0109487D01*
X0036507Y0109487D01*
X0036507Y0103581D01*
X0037058Y0103581D02*
X0037058Y0109487D01*
X0046507Y0109487D01*
X0046507Y0103581D01*
X0046507Y0095707D02*
X0046507Y0091376D01*
X0110411Y0106766D02*
X0110411Y0059522D01*
X0126159Y0059522D01*
X0141907Y0059522D02*
X0157655Y0059522D01*
X0157655Y0106766D01*
X0141907Y0106766D01*
X0126159Y0106766D02*
X0110411Y0106766D01*
X0147639Y0056906D02*
X0150789Y0056906D01*
X0150789Y0054544D01*
X0158239Y0056953D02*
X0159814Y0056953D01*
X0159814Y0051835D01*
X0165326Y0051835D01*
X0159814Y0051835D02*
X0158239Y0051835D01*
X0159814Y0056953D02*
X0165326Y0056953D01*
X0150789Y0048245D02*
X0150789Y0045882D01*
X0147639Y0045882D01*
X0109952Y0048583D02*
X0109952Y0050394D01*
X0108732Y0049474D01*
X0109952Y0050394D02*
X0109952Y0052205D01*
X0108732Y0051254D02*
X0109891Y0050494D01*
D11*
X0045783Y0098144D02*
X0037783Y0098144D01*
X0035783Y0098144D02*
X0027783Y0098144D01*
D12*
X0041667Y0027148D03*
D13*
X0097204Y0025087D02*
X0097204Y0030697D01*
X0109362Y0030697D02*
X0109362Y0025087D01*
X0133480Y0027315D02*
X0139090Y0027315D01*
X0139090Y0039473D02*
X0133480Y0039473D01*
D14*
X0125153Y0029394D02*
X0124913Y0029394D01*
X0117153Y0034394D02*
X0116913Y0034394D01*
X0066153Y0101394D02*
X0065913Y0101394D01*
M02*
