G75*
%MOIN*%
%OFA0B0*%
%FSLAX25Y25*%
%IPPOS*%
%LPD*%
%AMOC8*
5,1,8,0,0,1.08239X$1,22.5*
%
%ADD10R,0.04331X0.03937*%
%ADD11R,0.03937X0.04331*%
%ADD12R,0.06299X0.05512*%
%ADD13C,0.01181*%
%ADD14R,0.05000X0.02200*%
%ADD15R,0.02200X0.05000*%
%ADD16R,0.05906X0.01732*%
%ADD17R,0.11811X0.11811*%
%ADD18R,0.02480X0.03268*%
%ADD19R,0.03543X0.03150*%
%ADD20R,0.08268X0.01772*%
%ADD21R,0.01772X0.04331*%
%ADD22R,0.04331X0.01772*%
D10*
X0078283Y0035298D03*
X0083533Y0037298D03*
X0078283Y0041991D03*
X0083533Y0043991D03*
X0088783Y0043298D03*
X0088783Y0049991D03*
X0097936Y0056644D03*
X0104629Y0056644D03*
X0104629Y0064644D03*
X0097936Y0064644D03*
X0100783Y0080298D03*
X0100783Y0086991D03*
X0084629Y0094644D03*
X0077936Y0094644D03*
X0035283Y0059491D03*
X0035283Y0052798D03*
X0032436Y0045644D03*
X0039129Y0045644D03*
X0111783Y0038491D03*
X0111783Y0031798D03*
X0125283Y0037298D03*
X0125283Y0043991D03*
X0137436Y0041644D03*
X0144129Y0041644D03*
X0147783Y0035491D03*
X0147783Y0028798D03*
X0119129Y0021644D03*
X0112436Y0021644D03*
D11*
X0125033Y0025298D03*
X0133436Y0023644D03*
X0140129Y0023644D03*
X0125033Y0031991D03*
X0117033Y0030298D03*
X0117033Y0036991D03*
X0106629Y0038144D03*
X0099936Y0038144D03*
X0100629Y0046644D03*
X0093936Y0046644D03*
X0067129Y0040894D03*
X0060436Y0040894D03*
X0060436Y0035394D03*
X0067129Y0035394D03*
X0087436Y0021644D03*
X0094129Y0021644D03*
X0132436Y0049144D03*
X0139129Y0049144D03*
X0066033Y0097298D03*
X0060879Y0097894D03*
X0054186Y0097894D03*
X0049283Y0098048D03*
X0054186Y0103144D03*
X0049283Y0104741D03*
X0060879Y0103144D03*
X0066033Y0103991D03*
X0077936Y0099644D03*
X0084629Y0099644D03*
X0098936Y0100144D03*
X0105629Y0100144D03*
X0105629Y0105644D03*
X0098936Y0105644D03*
X0024283Y0102241D03*
X0024283Y0095548D03*
D12*
X0031783Y0093382D03*
X0041783Y0093382D03*
X0041783Y0104406D03*
X0031783Y0104406D03*
D13*
X0104452Y0051022D02*
X0104452Y0048266D01*
X0104452Y0051022D02*
X0107208Y0051022D01*
X0107208Y0048266D01*
X0104452Y0048266D01*
X0104452Y0049446D02*
X0107208Y0049446D01*
X0107208Y0050626D02*
X0104452Y0050626D01*
X0111358Y0051022D02*
X0111358Y0048266D01*
X0111358Y0051022D02*
X0114114Y0051022D01*
X0114114Y0048266D01*
X0111358Y0048266D01*
X0111358Y0049446D02*
X0114114Y0049446D01*
X0114114Y0050626D02*
X0111358Y0050626D01*
D14*
X0090683Y0055621D03*
X0090683Y0058770D03*
X0090683Y0061920D03*
X0090683Y0065069D03*
X0090683Y0068219D03*
X0090683Y0071369D03*
X0090683Y0074518D03*
X0090683Y0077668D03*
X0056883Y0077668D03*
X0056883Y0074518D03*
X0056883Y0071369D03*
X0056883Y0068219D03*
X0056883Y0065069D03*
X0056883Y0061920D03*
X0056883Y0058770D03*
X0056883Y0055621D03*
D15*
X0062759Y0049744D03*
X0065909Y0049744D03*
X0069058Y0049744D03*
X0072208Y0049744D03*
X0075358Y0049744D03*
X0078507Y0049744D03*
X0081657Y0049744D03*
X0084806Y0049744D03*
X0084806Y0083544D03*
X0081657Y0083544D03*
X0078507Y0083544D03*
X0075358Y0083544D03*
X0072208Y0083544D03*
X0069058Y0083544D03*
X0065909Y0083544D03*
X0062759Y0083544D03*
D16*
X0026942Y0024144D03*
X0026942Y0026644D03*
X0026942Y0029144D03*
X0026942Y0031644D03*
X0026942Y0034144D03*
X0026942Y0036644D03*
X0026942Y0039144D03*
X0026942Y0041644D03*
X0048123Y0041644D03*
X0048123Y0039144D03*
X0048123Y0036644D03*
X0048123Y0034144D03*
X0048123Y0031644D03*
X0048123Y0029144D03*
X0048123Y0026644D03*
X0048123Y0024144D03*
D17*
X0134033Y0060741D03*
X0134033Y0104048D03*
D18*
X0157255Y0053644D03*
X0166310Y0053644D03*
D19*
X0152363Y0050644D03*
X0144096Y0046904D03*
X0144096Y0054384D03*
X0030720Y0052404D03*
X0022452Y0056144D03*
X0030720Y0059884D03*
D20*
X0049283Y0058369D03*
X0049283Y0053644D03*
X0049283Y0048920D03*
D21*
X0100724Y0032225D03*
X0103283Y0032225D03*
X0105842Y0032225D03*
X0105842Y0023563D03*
X0100724Y0023563D03*
D22*
X0133202Y0030835D03*
X0133202Y0033394D03*
X0133202Y0035953D03*
X0141863Y0035953D03*
X0141863Y0030835D03*
M02*
