%
M48
M72
T01C0.02000
T02C0.02362
%
T01
X16783Y24144
X16783Y29144
X16783Y34144
X16783Y39144
X16783Y44144
X16783Y49144
X16783Y61644
X16783Y66644
X16783Y71644
X16783Y76644
X16783Y90144
X16783Y95144
X16783Y100144
X161783Y97644
X161783Y102644
X161783Y92644
X161783Y87644
X161783Y82644
X161783Y70144
X161783Y65144
T02
X161783Y75144
X136783Y92644
X144783Y102644
X106283Y94144
X106783Y88144
X106783Y82144
X101033Y74894
X95783Y74644
X92283Y82144
X78283Y89644
X90783Y98144
X60283Y92644
X54283Y92144
X58283Y87144
X50283Y70644
X50283Y62144
X59033Y48894
X54783Y42144
X76783Y29644
X83533Y33144
X92783Y28644
X88783Y38894
X112283Y26144
X128533Y20644
X131283Y41644
X108783Y55144
X99283Y52644
X107783Y67144
X167533Y47894
X67783Y22894
X61283Y22894
X55283Y24144
X16783Y55394
X26283Y75894
X22283Y80144
X25283Y90644
M30
