G75*
%MOIN*%
%OFA0B0*%
%FSLAX25Y25*%
%IPPOS*%
%LPD*%
%AMOC8*
5,1,8,0,0,1.08239X$1,22.5*
%
%ADD10R,0.04737X0.05131*%
%ADD11R,0.15800X0.08400*%
%ADD12R,0.16548X0.07493*%
%ADD13C,0.04800*%
D10*
X0023133Y0050426D03*
X0023133Y0057119D03*
D11*
X0035633Y0061272D03*
X0035633Y0071272D03*
X0035633Y0081272D03*
X0035633Y0091272D03*
X0035633Y0051272D03*
X0035633Y0041272D03*
X0035633Y0031272D03*
X0035633Y0021272D03*
X0035633Y0011272D03*
X0145870Y0011272D03*
X0145870Y0021272D03*
X0145870Y0031272D03*
D12*
X0162759Y0030022D03*
X0162759Y0021272D03*
X0162759Y0012522D03*
D13*
X0015633Y0008772D02*
X0011633Y0008772D01*
X0011633Y0013772D02*
X0015633Y0013772D01*
X0015633Y0018772D02*
X0011633Y0018772D01*
X0011633Y0023772D02*
X0015633Y0023772D01*
X0015633Y0035022D02*
X0011633Y0035022D01*
X0011633Y0040022D02*
X0015633Y0040022D01*
X0015633Y0045022D02*
X0011633Y0045022D01*
X0011633Y0050022D02*
X0015633Y0050022D01*
X0015633Y0055022D02*
X0011633Y0055022D01*
X0011633Y0066272D02*
X0015633Y0066272D01*
X0015633Y0071272D02*
X0011633Y0071272D01*
X0011633Y0082522D02*
X0015633Y0082522D01*
X0015633Y0087522D02*
X0011633Y0087522D01*
X0011633Y0092522D02*
X0015633Y0092522D01*
X0160633Y0091272D02*
X0164633Y0091272D01*
X0164633Y0086272D02*
X0160633Y0086272D01*
X0160633Y0081272D02*
X0164633Y0081272D01*
X0164633Y0076272D02*
X0160633Y0076272D01*
X0160633Y0071272D02*
X0164633Y0071272D01*
X0164633Y0066272D02*
X0160633Y0066272D01*
M02*
